<svg aria-hidden="true" focusable="false" data-prefix="fad" data-icon="desktop" class="svg-inline--fa fa-desktop fa-w-18" role="img" xmlns="http://www.w3.org/2000/svg" viewBox="0 0 576 512"><g class="fa-group"><path class="fa-secondary" fill="currentColor" d="M528 0H48A48 48 0 0 0 0 48v320a48 48 0 0 0 48 48h480a48 48 0 0 0 48-48V48a48 48 0 0 0-48-48zm-16 352H64V64h448z" opacity="0.4"></path><path class="fa-primary" fill="currentColor" d="M424 464h-72l-16-48h-96l-16 48h-72a24 24 0 0 0 0 48h272a24 24 0 0 0 0-48zM64 64v288h448V64z"></path></g></svg>